HIERARCHY
ROOT Hips
{
	OFFSET 0.00000 0.00000 0.00000
	CHANNELS 6 Xposition Yposition Zposition Zrotation Yrotation Xrotation 
	JOINT LHipJoint
	{
		OFFSET 0 0 0
		CHANNELS 3 Zrotation Yrotation Xrotation
		JOINT LeftUpLeg
		{
			OFFSET 1.80322 -1.53100 0.99595
			CHANNELS 3 Zrotation Yrotation Xrotation
			JOINT LeftLeg
			{
				OFFSET 2.25177 -6.18669 0.00000
				CHANNELS 3 Zrotation Yrotation Xrotation
				JOINT LeftFoot
				{
					OFFSET 2.26601 -6.22582 0.00000
					CHANNELS 3 Zrotation Yrotation Xrotation
					JOINT LeftToeBase
					{
						OFFSET 0.23701 -0.65119 2.15848
						CHANNELS 3 Zrotation Yrotation Xrotation
						End Site
						{
							OFFSET 0.00000 -0.00000 1.12949
						}
					}
				}
			}
		}
	}
	JOINT RHipJoint
	{
		OFFSET 0 0 0
		CHANNELS 3 Zrotation Yrotation Xrotation
		JOINT RightUpLeg
		{
			OFFSET -1.93977 -1.53100 0.99595
			CHANNELS 3 Zrotation Yrotation Xrotation
			JOINT RightLeg
			{
				OFFSET -2.28036 -6.26523 0.00000
				CHANNELS 3 Zrotation Yrotation Xrotation
				JOINT RightFoot
				{
					OFFSET -2.25490 -6.19528 0.00000
					CHANNELS 3 Zrotation Yrotation Xrotation
					JOINT RightToeBase
					{
						OFFSET -0.28375 -0.77960 2.23137
						CHANNELS 3 Zrotation Yrotation Xrotation
						End Site
						{
							OFFSET -0.00000 -0.00000 1.17899
						}
					}
				}
			}
		}
	}
	JOINT LowerBack
	{
		OFFSET 0 0 0
		CHANNELS 3 Zrotation Yrotation Xrotation
		JOINT Spine
		{
			OFFSET -0.00088 2.12090 -0.02806
			CHANNELS 3 Zrotation Yrotation Xrotation
			JOINT Spine1
			{
				OFFSET -0.00286 2.09666 0.12974
				CHANNELS 3 Zrotation Yrotation Xrotation
				JOINT Neck
				{
					OFFSET 0 0 0
					CHANNELS 3 Zrotation Yrotation Xrotation
					JOINT Neck1
					{
						OFFSET 0.07328 1.83526 0.07290
						CHANNELS 3 Zrotation Yrotation Xrotation
						JOINT Head
						{
							OFFSET -0.06683 1.74974 -0.49542
							CHANNELS 3 Zrotation Yrotation Xrotation
							End Site
							{
								OFFSET -0.03398 1.85163 -0.17573
							}
						}
					}
				}
				JOINT LeftShoulder
				{
					OFFSET 0 0 0
					CHANNELS 3 Zrotation Yrotation Xrotation
					JOINT LeftArm
					{
						OFFSET 3.02113 1.18018 0.40602
						CHANNELS 3 Zrotation Yrotation Xrotation
						JOINT LeftForeArm
						{
							OFFSET 4.58538 -0.00000 -0.00000
							CHANNELS 3 Zrotation Yrotation Xrotation
							JOINT LeftHand
							{
								OFFSET 2.68935 -0.00000 -0.00000
								CHANNELS 3 Zrotation Yrotation Xrotation
								JOINT LeftFingerBase
								{
									OFFSET 0 0 0
									CHANNELS 3 Zrotation Yrotation Xrotation
									JOINT LeftHandIndex1
									{
										OFFSET 0.58506 -0.00000 -0.00000
										CHANNELS 3 Zrotation Yrotation Xrotation
										End Site
										{
											OFFSET 0.47169 -0.00000 -0.00000
										}
									}
								}
								JOINT LThumb
								{
									OFFSET 0 0 0
									CHANNELS 3 Zrotation Yrotation Xrotation
									End Site
									{
										OFFSET 0.47889 -0.00000 0.47889
									}
								}
							}
						}
					}
				}
				JOINT RightShoulder
				{
					OFFSET 0 0 0
					CHANNELS 3 Zrotation Yrotation Xrotation
					JOINT RightArm
					{
						OFFSET -2.95074 1.18843 0.31430
						CHANNELS 3 Zrotation Yrotation Xrotation
						JOINT RightForeArm
						{
							OFFSET -4.47450 -0.00000 -0.00000
							CHANNELS 3 Zrotation Yrotation Xrotation
							JOINT RightHand
							{
								OFFSET -2.93896 -0.00000 -0.00000
								CHANNELS 3 Zrotation Yrotation Xrotation
								JOINT RightFingerBase
								{
									OFFSET 0 0 0
									CHANNELS 3 Zrotation Yrotation Xrotation
									JOINT RightHandIndex1
									{
										OFFSET -0.40509 -0.00000 -0.00000
										CHANNELS 3 Zrotation Yrotation Xrotation
										End Site
										{
											OFFSET -0.32660 -0.00000 -0.00000
										}
									}
								}
								JOINT RThumb
								{
									OFFSET 0 0 0
									CHANNELS 3 Zrotation Yrotation Xrotation
									End Site
									{
										OFFSET -0.33158 -0.00000 0.33158
									}
								}
							}
						}
					}
				}
			}
		}
	}
}
MOTION
Frames: 10
Frame Time: .0083333
-0.3007 15.5357 8.331 0 0 0 0 0 0 -21 0 0 0 0 0 0 0 0 0 0 0 0 0 0 21 0 0 0 0 0 0 0 0 0 0 0 0 0 0 0 0 0 0 0 0 0 0 -16 0 0 21 0 0 11 0 0 0 -8 0 0 0 0 0 0 0 0 0 0 0 0 0 0 0 0 0 0 0 0 8 0 0 0 0 0 0 0 0 0 0 0 0 0 0 0 0 0
-0.3007 15.5357 8.3310 1.0280 -5.0397 9.6141 0.0000 0.0000 0.0000 -23.3134 -16.0369 -12.2957 2.5397 9.9097 28.6849 1.0742 7.1217 -23.3763 0.0365 1.2324 3.3885 0.0000 0.0000 0.0000 18.8051 13.9230 -16.6811 -3.5251 -11.5001 33.9857 -1.4068 -6.0181 -25.2975 -0.0015 -0.2515 0.6911 -0.8231 -2.2824 -6.6992 0.1896 -3.0578 -9.6416 0.6233 -1.4831 -6.2608 1.1007 -5.0456 -8.9169 -5.3209 -6.1534 30.1970 -2.8606 -3.3974 10.9686 -0.0000 -0.0000 0.0000 -83.2047 20.3765 13.6078 16.8568 -26.6686 -4.0228 -0.0000 -0.0000 2.0997 15.1808 23.2272 6.1079 -7.1250 0.0000 -0.0000 -14.5058 53.3680 -3.0356 -0.0000 -0.0000 0.0000 79.7506 -14.8623 5.4549 -11.8781 19.6216 -2.0612 0.0000 0.0000 12.3177 -13.5817 -5.0239 1.2120 7.1250 -0.0000 -0.0000 10.8371 -34.9793 2.7071
-0.3001 15.5371 8.3298 1.0370 -5.1058 9.5999 0.0000 0.0000 0.0000 -23.3512 -16.0368 -12.3146 2.5476 9.9240 28.7308 1.0649 7.2602 -23.3967 0.0394 1.2812 3.5228 0.0000 0.0000 0.0000 18.7926 13.9838 -16.6426 -3.5188 -11.4909 33.9540 -1.4012 -6.0309 -25.2632 -0.0016 -0.2620 0.7198 -0.8146 -2.2551 -6.6722 0.1919 -3.0222 -9.6624 0.6231 -1.4655 -6.2994 1.2160 -4.6311 -9.2764 -5.2486 -5.5977 30.8147 -2.8341 -3.1178 11.3008 0.0000 -0.0000 0.0000 -83.0876 20.2501 13.7702 16.8070 -26.6026 -4.0005 -0.0000 -0.0000 2.5542 14.7853 23.1504 5.9241 -7.1250 0.0000 -0.0000 -14.8613 53.2212 -3.0587 0.0000 -0.0000 0.0000 79.7137 -14.7177 5.6425 -12.0604 19.8951 -2.1228 0.0000 0.0000 11.9894 -14.6081 -4.5388 1.1815 7.1250 -0.0000 -0.0000 9.9285 -34.5345 2.5830
-0.2994 15.5378 8.3284 1.0619 -5.1377 9.5689 0.0000 0.0000 0.0000 -23.4056 -16.0951 -12.2753 2.5507 9.9295 28.7488 1.0606 7.3752 -23.4426 0.0457 1.3792 3.7928 0.0000 0.0000 0.0000 18.7665 14.0009 -16.6117 -3.5177 -11.4893 33.9485 -1.3972 -6.0441 -25.2405 -0.0011 -0.2179 0.5988 -0.8151 -2.2404 -6.6716 0.1926 -3.0026 -9.6729 0.6248 -1.4555 -6.3113 1.8887 -4.1640 -9.2973 -5.6252 -4.9475 31.1469 -3.0278 -2.7883 11.4242 -0.0000 0.0000 0.0000 -82.9845 20.1130 13.9045 16.7771 -26.5630 -3.9871 -0.0000 -0.0000 3.0875 14.4580 22.6164 5.6626 -7.1250 0.0000 -0.0000 -14.9378 52.6403 -2.8601 -0.0000 0.0000 0.0000 79.7082 -14.5045 5.8514 -12.5582 20.6364 -2.2952 0.0000 0.0000 12.7909 -13.8480 -7.8159 1.9200 7.1250 -0.0000 -0.0000 11.0828 -37.8117 1.9906
-0.2974 15.5382 8.3283 1.0937 -5.1885 9.5388 0.0000 0.0000 0.0000 -23.4816 -16.0909 -12.2486 2.5546 9.9365 28.7712 1.0509 7.5042 -23.4546 0.0420 1.3229 3.6377 0.0000 0.0000 0.0000 18.7218 13.9687 -16.5929 -3.5157 -11.4864 33.9385 -1.4017 -5.9709 -25.2306 -0.0009 -0.1891 0.5195 -0.8106 -2.2102 -6.6803 0.1756 -2.9632 -9.6786 0.6049 -1.4368 -6.3144 1.9085 -3.8847 -9.4920 -5.4917 -4.5849 31.7328 -2.9739 -2.6012 11.7178 0.0000 0.0000 0.0000 -82.8610 19.9530 14.1779 16.7468 -26.5228 -3.9736 -0.0000 -0.0000 3.7584 13.9098 22.2233 5.3512 -7.1250 0.0000 -0.0000 -15.2957 52.1609 -2.7492 0.0000 0.0000 0.0000 79.7399 -14.3446 6.2577 -12.6544 20.7787 -2.3292 0.0000 0.0000 11.6978 -15.4973 -6.5709 1.8174 7.1250 -0.0000 -0.0000 9.4935 -36.6511 1.9712
-0.2959 15.5388 8.3277 1.1098 -5.2414 9.5155 0.0000 0.0000 0.0000 -23.5317 -16.0966 -12.2298 2.5577 9.9420 28.7892 1.0426 7.6242 -23.4725 0.0423 1.3275 3.6505 0.0000 0.0000 0.0000 18.6967 13.9757 -16.5728 -3.5142 -11.4843 33.9312 -1.4029 -5.9333 -25.2170 -0.0006 -0.1563 0.4293 -0.7971 -2.1786 -6.6895 0.1660 -2.9217 -9.6885 0.5877 -1.4173 -6.3216 2.1399 -3.5459 -9.6968 -5.5128 -4.1335 32.3180 -3.0017 -2.3684 12.0101 0.0000 -0.0000 0.0000 -82.7415 19.8057 14.4345 16.7218 -26.4896 -3.9624 -0.0000 -0.0000 4.4007 13.4065 21.8057 5.0597 -7.1250 0.0000 -0.0000 -15.5981 51.6685 -2.6147 0.0000 -0.0000 0.0000 79.7622 -14.1775 6.5740 -12.8653 21.0895 -2.4046 0.0000 0.0000 11.1629 -16.3540 -6.5162 1.9073 7.1250 -0.0000 -0.0000 8.7707 -36.6447 1.8196
-0.2945 15.5393 8.3270 1.1203 -5.2966 9.4954 0.0000 0.0000 0.0000 -23.5733 -16.0947 -12.2162 2.5608 9.9476 28.8073 1.0350 7.7333 -23.4891 0.0427 1.3330 3.6656 0.0000 0.0000 0.0000 18.6764 13.9842 -16.5556 -3.5124 -11.4817 33.9221 -1.4042 -5.8918 -25.2017 -0.0004 -0.1221 0.3354 -0.7786 -2.1423 -6.7062 0.1548 -2.8742 -9.6980 0.5659 -1.3953 -6.3247 2.3645 -3.2199 -9.9212 -5.5146 -3.7052 32.9598 -3.0258 -2.1442 12.3358 0.0000 0.0000 0.0000 -82.6211 19.6583 14.7326 16.7083 -26.4716 -3.9564 -0.0000 -0.0000 5.0914 12.8389 21.3413 4.7413 -7.1250 0.0000 -0.0000 -15.9409 51.1230 -2.4577 0.0000 0.0000 0.0000 79.7974 -14.0118 6.8967 -13.0598 21.3748 -2.4750 0.0000 0.0000 10.5209 -17.1641 -6.2548 1.9273 7.1250 -0.0000 -0.0000 8.0578 -36.4213 1.7135
-0.2929 15.5398 8.3263 1.1250 -5.3529 9.4788 0.0000 0.0000 0.0000 -23.6054 -16.0858 -12.2123 2.5647 9.9546 28.8298 1.0286 7.8280 -23.5054 0.0435 1.3456 3.7003 0.0000 0.0000 0.0000 18.6621 13.9947 -16.5382 -3.5094 -11.4773 33.9071 -1.4053 -5.8491 -25.1847 -0.0002 -0.0964 0.2649 -0.7551 -2.1017 -6.7289 0.1414 -2.8210 -9.7069 0.5388 -1.3708 -6.3240 2.5787 -2.8973 -10.1704 -5.4812 -3.2907 33.6603 -3.0382 -1.9226 12.6995 -0.0000 -0.0000 0.0000 -82.4999 19.5134 15.0773 16.7139 -26.4790 -3.9589 -0.0000 -0.0000 5.8079 12.1855 20.8606 4.3972 -7.1250 0.0000 -0.0000 -16.3573 50.5518 -2.2911 -0.0000 -0.0000 0.0000 79.8448 -13.8478 7.2100 -13.2370 21.6335 -2.5400 0.0000 0.0000 9.8017 -17.8716 -5.7572 1.8526 7.1250 -0.0000 -0.0000 7.4037 -35.9435 1.6594
-0.2914 15.5403 8.3256 1.1257 -5.4082 9.4652 0.0000 0.0000 0.0000 -23.6298 -16.0755 -12.2121 2.5686 9.9616 28.8525 1.0237 7.9089 -23.5242 0.0452 1.3724 3.7742 0.0000 0.0000 0.0000 18.6520 14.0073 -16.5227 -3.5061 -11.4724 33.8901 -1.4060 -5.8093 -25.1662 -0.0001 -0.0786 0.2160 -0.7292 -2.0584 -6.7585 0.1261 -2.7641 -9.7142 0.5082 -1.3448 -6.3179 2.8260 -2.5633 -10.4191 -5.4396 -2.8695 34.3959 -3.0523 -1.6921 13.0868 0.0000 0.0000 0.0000 -82.3817 19.3722 15.4597 16.7440 -26.5190 -3.9723 -0.0000 -0.0000 6.5411 11.4495 20.3458 4.0280 -7.1250 0.0000 -0.0000 -16.8350 49.9395 -2.1026 0.0000 0.0000 0.0000 79.9046 -13.6778 7.5277 -13.4364 21.9233 -2.6140 0.0000 0.0000 9.1535 -18.3007 -5.5368 1.8277 7.1250 -0.0000 -0.0000 7.0203 -35.7360 1.6082
-0.2899 15.5407 8.3249 1.1244 -5.4598 9.4508 0.0000 0.0000 0.0000 -23.6509 -16.0648 -12.2112 2.5724 9.9683 28.8741 1.0197 7.9789 -23.5437 0.0474 1.4052 3.8644 0.0000 0.0000 0.0000 18.6445 14.0163 -16.5056 -3.5025 -11.4671 33.8720 -1.4069 -5.7692 -25.1485 -0.0001 -0.0701 0.1925 -0.7025 -2.0147 -6.7906 0.1096 -2.7068 -9.7202 0.4759 -1.3187 -6.3090 3.1021 -2.2177 -10.6572 -5.3853 -2.4424 35.1571 -3.0645 -1.4528 13.4937 0.0000 0.0000 0.0000 -82.2712 19.2387 15.8716 16.8010 -26.5946 -3.9978 -0.0000 -0.0000 7.2695 10.6426 19.7938 3.6411 -7.1250 0.0000 -0.0000 -17.3606 49.2863 -1.8863 0.0000 0.0000 0.0000 79.9737 -13.5060 7.8671 -13.6518 22.2348 -2.6949 0.0000 0.0000 8.5447 -18.4947 -5.5359 1.8482 7.1250 -0.0000 -0.0000 6.8592 -35.7450 1.5693
